<?xml version="1.0" encoding="UTF-8"?>
<svg xmlns="http://www.w3.org/2000/svg" xmlns:xlink="http://www.w3.org/1999/xlink" viewBox="0 0 240 240" width="240px" height="240px">
<g id="surface33775687">
<path style=" stroke:none;fill-rule:nonzero;fill:rgb(100%,100%,100%);fill-opacity:1;" d="M 104 24 C 59.910156 24 24 59.910156 24 104 C 24 148.089844 59.910156 184 104 184 C 123.171875 184 140.777344 177.191406 154.578125 165.890625 L 202.34375 213.65625 C 204.351562 215.746094 207.328125 216.589844 210.132812 215.855469 C 212.9375 215.125 215.125 212.9375 215.855469 210.132812 C 216.589844 207.328125 215.746094 204.351562 213.65625 202.34375 L 165.890625 154.578125 C 177.191406 140.777344 184 123.171875 184 104 C 184 59.910156 148.089844 24 104 24 Z M 104 40 C 139.441406 40 168 68.558594 168 104 C 168 139.441406 139.441406 168 104 168 C 68.558594 168 40 139.441406 40 104 C 40 68.558594 68.558594 40 104 40 Z M 104 40 "/>
</g>
</svg>
